<?xml version="1.0" standalone="no"?>
<!DOCTYPE svg PUBLIC "-//W3C//DTD SVG 20010904//EN"
 "http://www.w3.org/TR/2001/REC-SVG-20010904/DTD/svg10.dtd">
<svg version="1.0" xmlns="http://www.w3.org/2000/svg"
 width="448.000000pt" height="381.000000pt" viewBox="0 0 448.000000 381.000000"
 preserveAspectRatio="xMidYMid meet">

<g transform="translate(0.000000,381.000000) scale(0.100000,-0.100000)"
fill="#F545BD" stroke="none">
<path d="M2055 3569 c-183 -33 -314 -66 -267 -68 13 -1 20 -5 17 -11 -8 -13
-8 -13 78 4 240 48 428 48 669 0 141 -28 383 -141 497 -232 103 -82 244 -241
313 -352 58 -93 130 -254 152 -340 46 -182 52 -331 20 -522 -14 -86 -35 -158
-33 -113 4 66 -8 87 -63 109 l-36 16 30 -83 c52 -140 52 -138 22 -212 -15 -37
-36 -76 -48 -87 -12 -12 -15 -18 -8 -13 10 5 9 -1 -2 -24 -17 -32 -30 -43 -20
-16 4 8 1 15 -5 15 -6 0 -10 -12 -9 -27 2 -32 -19 -76 -32 -68 -5 3 -12 0 -16
-6 -4 -8 -3 -9 4 -5 18 11 14 -6 -8 -34 -11 -14 -20 -20 -20 -14 0 8 -11 8
-37 -2 -21 -7 -46 -13 -56 -14 -20 0 -47 -23 -47 -39 0 -6 -7 -11 -15 -11 -8
0 -15 -6 -15 -13 0 -19 -33 -47 -54 -47 -10 0 -24 -7 -32 -15 -9 -8 -11 -15
-5 -15 21 0 11 -30 -11 -34 -13 -3 -32 -7 -43 -9 -18 -4 -18 -5 3 -6 12 0 22
-6 22 -11 0 -6 -6 -10 -12 -9 -31 4 -48 -2 -48 -16 0 -8 -6 -15 -14 -15 -8 0
-17 -8 -21 -17 -5 -15 -4 -16 6 -5 15 14 33 16 24 2 -3 -5 -2 -16 2 -24 6 -11
15 -9 46 11 22 14 35 28 31 35 -5 7 -3 8 5 3 19 -11 -9 -35 -96 -84 -144 -81
-316 -140 -469 -161 -85 -11 -114 -7 -114 16 0 8 -5 14 -11 14 -7 0 -20 10
-31 23 -17 19 -18 22 -4 25 17 4 23 52 6 52 -5 0 -10 7 -10 15 0 8 -7 15 -15
15 -8 0 -15 7 -15 15 0 8 4 15 10 15 5 0 14 9 20 19 10 21 16 22 -135 -39 -19
-8 -19 -9 3 -9 22 -1 22 -2 7 -17 -11 -11 -25 -14 -45 -10 -19 3 -34 0 -45
-10 -8 -9 -21 -13 -28 -11 -9 4 -9 6 1 6 29 2 9 16 -26 18 -26 1 -30 -1 -15
-5 52 -16 -29 -53 -92 -43 -22 3 -38 11 -36 16 2 6 12 9 23 7 10 -2 18 2 18 7
0 7 -27 11 -67 11 -108 1 -200 16 -227 37 -28 22 -88 91 -68 79 6 -4 12 -3 12
3 0 5 -21 17 -47 26 -128 46 -137 50 -247 115 l-39 23 13 -24 c21 -42 -117
111 -146 161 -6 12 -3 11 16 -2 234 -164 411 -243 619 -274 84 -13 107 -13
210 2 64 9 122 21 129 27 7 5 15 7 19 4 3 -4 12 -2 20 4 7 6 13 8 13 4 0 -5 9
0 19 9 11 10 25 18 33 20 25 3 38 17 38 41 0 13 20 45 48 76 l47 54 -47 -39
c-30 -24 -48 -33 -48 -24 0 8 5 19 12 26 9 9 9 12 0 12 -7 0 -12 -4 -12 -10 0
-5 -12 -10 -27 -10 -16 0 -46 -9 -68 -19 -22 -10 -62 -24 -90 -31 -27 -6 -57
-18 -66 -26 -8 -8 -19 -11 -22 -7 -4 3 -7 1 -7 -5 0 -9 -27 -12 -90 -11 -49 1
-95 -3 -102 -8 -25 -20 -68 -25 -74 -8 -4 8 -12 15 -19 15 -7 0 -15 8 -17 18
-3 11 -22 23 -47 30 -22 7 -41 17 -41 21 0 14 29 21 58 16 15 -3 7 2 -18 11
-39 13 -87 21 -140 24 -13 0 -13 1 0 11 12 9 10 10 -8 6 -13 -3 -21 -3 -18 0
3 4 -49 34 -117 67 -118 58 -221 125 -280 181 -15 14 -31 24 -35 21 -19 -11
-68 128 -93 264 -16 87 -18 392 -2 411 6 8 16 43 22 79 25 140 108 334 203
469 21 30 38 66 38 81 0 14 6 32 13 40 6 8 -1 4 -17 -10 -15 -14 -48 -52 -71
-85 -113 -158 -192 -340 -231 -533 -23 -115 -25 -143 -21 -292 4 -132 10 -185
30 -266 55 -214 177 -435 331 -595 50 -51 66 -73 58 -81 -8 -8 -13 -7 -18 5
-3 9 -12 17 -20 17 -7 0 -23 11 -36 24 -13 12 -45 43 -72 67 -44 39 -47 40
-28 13 28 -41 155 -170 212 -215 51 -42 150 -99 170 -99 7 0 28 -11 46 -25 18
-14 36 -25 41 -25 4 0 35 -13 68 -29 118 -59 158 -74 200 -75 24 -1 38 -4 32
-8 -7 -5 -3 -8 11 -8 51 0 35 53 -19 65 -17 4 -28 9 -26 11 2 3 31 -3 63 -11
254 -68 518 -58 787 29 240 79 396 175 582 361 103 103 129 136 182 230 74
130 122 258 158 412 20 91 25 137 25 250 0 163 -10 233 -51 368 -61 200 -130
324 -273 494 -177 210 -421 363 -689 432 -171 44 -413 61 -542 38z m-1022
-1854 c7 0 12 -12 12 -27 1 -14 7 -33 14 -42 9 -10 10 -16 2 -16 -6 0 -24 28
-41 63 -17 34 -24 53 -15 42 9 -11 21 -20 28 -20z m58 -49 c5 3 9 -2 9 -11 0
-23 -24 -13 -27 11 -2 10 0 13 3 6 3 -6 10 -10 15 -6z m-11 -66 c6 -11 8 -20
6 -20 -3 0 -10 9 -16 20 -6 11 -8 20 -6 20 3 0 10 -9 16 -20z m215 -50 c19 -8
19 -9 -2 -9 -12 -1 -25 4 -28 9 -7 12 2 12 30 0z m1995 -84 c0 -3 -4 -8 -10
-11 -5 -3 -10 -1 -10 4 0 6 5 11 10 11 6 0 10 -2 10 -4z m-20 -29 c0 -2 -10
-12 -22 -23 l-23 -19 19 23 c18 21 26 27 26 19z m-50 -51 c0 -2 -8 -10 -17
-17 -16 -13 -17 -12 -4 4 13 16 21 21 21 13z m-60 -59 c0 -2 -10 -12 -22 -23
l-23 -19 19 23 c18 21 26 27 26 19z m-70 -61 c0 -2 -12 -11 -27 -20 l-28 -17
24 20 c23 21 31 25 31 17z m-1769 -53 c13 -16 12 -17 -3 -4 -17 13 -22 21 -14
21 2 0 10 -8 17 -17z m69 -50 c0 -7 -39 17 -46 28 -3 6 5 3 20 -6 14 -10 26
-19 26 -22z m743 -60 c-7 -2 -21 -2 -30 0 -10 3 -4 5 12 5 17 0 24 -2 18 -5z
m-371 -44 c32 -12 57 -24 54 -26 -4 -4 -115 33 -124 42 -10 10 11 5 70 -16z
m153 -49 c13 -6 15 -9 5 -9 -8 0 -22 4 -30 9 -18 12 -2 12 25 0z m333 -47
c-16 -2 -40 -2 -55 0 -16 2 -3 4 27 4 30 0 43 -2 28 -4z"/>
<path d="M1720 3490 c-18 -12 -2 -12 25 0 13 6 15 9 5 9 -8 0 -22 -4 -30 -9z"/>
<path d="M1670 3470 c-8 -5 -10 -10 -5 -10 6 0 17 5 25 10 8 5 11 10 5 10 -5
0 -17 -5 -25 -10z"/>
<path d="M1680 3440 c-9 -6 -10 -10 -3 -10 6 0 15 5 18 10 8 12 4 12 -15 0z"/>
<path d="M1414 3325 c-18 -15 -18 -15 0 -8 13 4 17 3 12 -5 -9 -15 -4 -15 29
0 14 6 25 15 25 20 0 5 -9 4 -19 -2 -25 -13 -34 -13 -26 0 9 14 2 12 -21 -5z"/>
<path d="M2748 2913 c7 -3 16 -2 19 1 4 3 -2 6 -13 5 -11 0 -14 -3 -6 -6z"/>
<path d="M2990 2886 c20 -7 56 -16 80 -20 l45 -6 -35 14 c-20 7 -56 16 -80 20
l-45 6 35 -14z"/>
<path d="M3681 2155 c-15 -168 -43 -304 -82 -403 -149 -374 -409 -641 -768
-791 -248 -103 -361 -126 -621 -126 -174 1 -207 4 -303 27 -60 14 -105 22
-100 18 12 -12 237 -70 333 -86 47 -8 96 -16 110 -18 82 -14 196 -17 256 -7
38 6 93 13 123 16 30 3 73 10 95 16 79 20 222 67 242 78 30 16 95 41 110 41 8
0 23 9 34 20 11 11 27 20 35 20 8 0 15 5 15 10 0 6 6 10 14 10 7 0 20 7 27 16
8 9 30 27 49 40 106 69 316 289 362 379 8 17 22 44 30 60 30 58 55 120 63 155
4 19 10 37 14 40 17 13 46 223 46 330 0 100 -3 123 -25 175 -14 33 -28 62 -31
65 -4 3 -9 16 -11 30 -2 14 -9 -38 -17 -115z"/>
<path d="M3490 2229 c0 -8 7 -24 16 -35 14 -18 15 -18 8 6 -8 31 -24 50 -24
29z"/>
<path d="M908 2085 c10 -29 30 -53 87 -105 48 -43 43 -35 -23 40 -16 19 -40
46 -51 60 -17 21 -20 21 -13 5z"/>
<path d="M3387 1975 c9 -19 18 -33 21 -31 4 5 -26 66 -33 66 -3 0 3 -16 12
-35z"/>
<path d="M1490 1686 c0 -2 7 -7 16 -10 8 -3 12 -2 9 4 -6 10 -25 14 -25 6z"/>
<path d="M2932 1575 c0 -16 2 -22 5 -12 2 9 2 23 0 30 -3 6 -5 -1 -5 -18z"/>
<path d="M2160 1559 c-19 -16 -57 -41 -85 -54 -27 -13 -44 -24 -36 -25 20 0
113 55 140 84 32 34 24 32 -19 -5z"/>
<path d="M960 1541 c0 -6 4 -13 10 -16 6 -3 7 1 4 9 -7 18 -14 21 -14 7z"/>
<path d="M1498 1543 c7 -3 16 -2 19 1 4 3 -2 6 -13 5 -11 0 -14 -3 -6 -6z"/>
<path d="M1538 1533 c7 -3 16 -2 19 1 4 3 -2 6 -13 5 -11 0 -14 -3 -6 -6z"/>
<path d="M1578 1523 c7 -3 16 -2 19 1 4 3 -2 6 -13 5 -11 0 -14 -3 -6 -6z"/>
<path d="M2916 1500 c-11 -51 -71 -172 -111 -225 -20 -25 -33 -51 -29 -57 4
-6 3 -8 -3 -5 -6 4 -21 -5 -34 -19 -46 -49 -154 -122 -204 -138 l-50 -15 63 5
c48 3 62 2 56 -7 -4 -7 3 -5 15 3 12 9 32 13 43 10 15 -4 19 -2 13 7 -5 10 -2
11 11 7 25 -8 48 8 41 28 -7 16 7 65 15 56 2 -3 12 3 22 13 12 12 14 17 4 17
-14 1 21 24 37 25 6 0 15 -6 22 -15 14 -18 20 -13 23 20 4 49 0 71 -12 64 -6
-4 -8 -3 -5 4 4 5 16 8 28 5 17 -5 20 -2 17 13 -2 10 -11 18 -18 16 -10 -2 -9
3 4 17 11 12 16 24 13 28 -4 3 -3 11 2 17 15 18 53 135 48 149 -2 6 -7 -4 -11
-23z"/>
<path d="M1628 1513 c7 -3 16 -2 19 1 4 3 -2 6 -13 5 -11 0 -14 -3 -6 -6z"/>
<path d="M1008 1468 c18 -26 37 -50 42 -53 17 -10 -29 61 -52 81 -15 14 -12 5
10 -28z"/>
<path d="M1678 1503 c12 -2 30 -2 40 0 9 3 -1 5 -23 4 -22 0 -30 -2 -17 -4z"/>
<path d="M2826 1475 c-9 -26 -7 -32 5 -12 6 10 9 21 6 23 -2 3 -7 -2 -11 -11z"/>
<path d="M1955 1460 c-38 -14 -82 -19 -177 -19 -70 -1 -129 -4 -131 -8 -5 -8
253 -9 288 -1 21 5 97 49 80 47 -5 -1 -32 -10 -60 -19z"/>
<path d="M2374 1378 l-19 -23 23 19 c12 11 22 21 22 23 0 8 -8 2 -26 -19z"/>
<path d="M2755 1330 c-9 -16 -13 -30 -11 -30 3 0 12 14 21 30 9 17 13 30 11
30 -3 0 -12 -13 -21 -30z"/>
<path d="M2284 1304 c-18 -14 -18 -15 4 -4 12 6 22 13 22 15 0 8 -5 6 -26 -11z"/>
<path d="M2707 1264 c-9 -13 -24 -21 -31 -18 -9 3 -17 -3 -21 -16 -11 -35 -1
-32 40 10 21 22 37 42 34 44 -2 2 -12 -7 -22 -20z"/>
<path d="M2200 1260 c-8 -5 -10 -10 -5 -10 6 0 17 5 25 10 8 5 11 10 5 10 -5
0 -17 -5 -25 -10z"/>
<path d="M2068 1213 c7 -3 16 -2 19 1 4 3 -2 6 -13 5 -11 0 -14 -3 -6 -6z"/>
<path d="M1714 1200 c47 -15 187 -22 236 -12 40 9 32 10 -61 11 -58 1 -128 3
-155 6 -41 4 -44 3 -20 -5z"/>
<path d="M2910 1170 c-13 -8 -12 -10 3 -10 9 0 17 5 17 10 0 12 -1 12 -20 0z"/>
<path d="M2080 1140 c-9 -6 -10 -10 -3 -10 6 0 15 5 18 10 8 12 4 12 -15 0z"/>
<path d="M2440 559 c0 -4 12 -10 26 -13 17 -5 24 -12 20 -22 -3 -9 5 -6 25 8
18 13 25 24 17 25 -49 7 -88 8 -88 2z"/>
<path d="M2871 553 c-66 -33 -91 -115 -50 -167 12 -15 49 -41 83 -57 81 -41
96 -56 96 -95 0 -44 -42 -78 -84 -70 -44 9 -77 34 -89 67 -15 39 -29 37 -25
-3 10 -100 213 -104 247 -6 30 86 8 124 -107 182 -38 19 -72 42 -76 51 -12 32
-6 64 16 79 46 32 106 13 132 -41 21 -44 30 -37 21 15 -6 37 -10 41 -50 51
-58 15 -74 14 -114 -6z"/>
<path d="M4186 555 c-49 -17 -106 -63 -130 -104 -24 -42 -26 -143 -3 -188 22
-42 64 -81 104 -99 45 -19 131 -18 173 4 42 21 71 65 53 83 -10 10 -14 7 -21
-12 -15 -38 -48 -61 -96 -66 -53 -6 -87 11 -111 57 -14 27 -37 190 -30 214 2
6 6 23 9 38 4 19 19 34 46 48 73 37 136 18 166 -50 10 -22 22 -40 26 -40 5 0
8 24 6 53 -2 28 -7 52 -13 51 -5 0 -30 5 -54 13 -55 16 -75 16 -125 -2z"/>
<path d="M73 549 c15 -9 17 -29 17 -194 0 -178 -1 -185 -20 -185 -11 0 -20 -4
-20 -10 0 -6 46 -10 118 -10 166 1 232 34 232 118 0 44 -14 68 -50 87 l-30 16
27 23 c51 44 29 121 -44 152 -40 17 -259 20 -230 3z m195 -36 c46 -51 18 -128
-50 -135 l-38 -4 0 88 0 88 33 -6 c17 -3 42 -17 55 -31z m21 -179 c31 -39 29
-107 -4 -140 -20 -20 -34 -25 -63 -22 l-37 3 -3 93 -3 92 45 0 c36 0 48 -5 65
-26z"/>
<path d="M485 550 c3 -5 13 -10 21 -10 12 0 14 -31 14 -185 0 -154 -2 -185
-14 -185 -8 0 -18 -4 -21 -10 -4 -7 49 -10 153 -10 l159 0 7 51 c4 28 5 53 3
55 -2 3 -15 -11 -28 -31 -30 -43 -62 -57 -125 -53 -46 3 -49 5 -52 33 -2 16
-1 58 3 92 l7 63 39 0 c34 0 43 -5 57 -30 9 -16 20 -30 25 -30 4 0 7 28 7 63
l-1 62 -20 -27 c-18 -24 -28 -28 -70 -28 l-49 0 0 85 0 85 63 0 c66 0 82 -8
111 -50 16 -24 16 -24 16 23 l0 47 -156 0 c-101 0 -153 -3 -149 -10z"/>
<path d="M1062 544 c-5 -10 -35 -80 -67 -154 -32 -74 -66 -154 -76 -177 -10
-24 -25 -43 -33 -43 -8 0 -18 -4 -21 -10 -4 -6 14 -10 47 -10 48 1 51 2 34 15
-18 14 -18 18 -5 57 7 24 21 50 31 60 10 10 12 18 6 20 -6 2 -2 21 12 48 12
24 28 59 34 77 l11 34 32 -73 32 -73 -47 -12 -47 -13 51 4 51 5 21 -61 c21
-57 21 -85 1 -73 -5 4 -9 1 -9 -4 0 -7 31 -11 81 -11 79 0 81 1 60 18 -11 9
-43 69 -70 132 -98 227 -117 265 -129 244z"/>
<path d="M1320 554 c0 -3 7 -12 15 -21 12 -12 15 -40 13 -146 -3 -148 7 -180
68 -218 45 -28 131 -26 175 4 53 36 59 56 59 215 0 135 1 144 20 149 38 10 20
23 -31 23 -31 0 -48 -4 -44 -10 3 -5 12 -10 20 -10 22 0 28 -61 21 -194 -6
-118 -7 -122 -36 -148 -44 -41 -102 -39 -141 3 l-29 31 0 154 c0 151 1 155 23
164 16 6 1 9 -55 9 -43 1 -78 -2 -78 -5z"/>
<path d="M1773 531 c10 -28 11 -28 31 -10 11 11 34 19 53 19 l33 0 0 -185 c0
-154 -2 -185 -14 -185 -8 0 -17 -3 -20 -8 -2 -4 32 -8 76 -9 80 -1 80 -1 59
18 -20 19 -21 30 -21 195 l0 175 37 -3 c31 -2 42 -10 62 -40 13 -21 26 -36 29
-33 2 2 1 25 -2 50 l-7 45 -164 0 -163 0 11 -29z"/>
<path d="M2168 547 c29 -16 41 -34 96 -142 42 -81 46 -95 46 -161 0 -64 -2
-72 -22 -82 -19 -9 -6 -11 65 -11 52 -1 87 3 87 9 0 6 -8 10 -19 10 -23 0 -31
26 -31 112 0 36 -3 68 -7 70 -5 2 -30 45 -56 96 l-48 92 23 10 c17 6 -2 9 -67
9 -77 0 -87 -1 -67 -12z"/>
<path d="M3126 549 c23 -12 65 -73 118 -172 31 -59 36 -78 36 -136 0 -61 -2
-69 -22 -79 -19 -9 -6 -11 65 -11 48 -1 87 1 87 4 0 3 -11 10 -25 15 -24 9
-25 13 -25 94 0 47 -5 88 -10 91 -6 4 -24 34 -41 68 -18 34 -40 74 -51 90
l-19 27 23 9 c17 7 -2 10 -67 10 -67 0 -85 -3 -69 -10z"/>
<path d="M3415 551 c17 -4 29 -12 28 -18 -2 -9 48 9 66 24 2 1 -25 2 -60 2
-47 -1 -56 -3 -34 -8z"/>
<path d="M3577 548 c29 -14 32 -36 35 -223 l3 -150 -28 -3 c-49 -6 -18 -22 41
-21 47 0 53 2 35 11 -19 9 -22 21 -28 132 -11 191 -14 189 91 56 51 -63 113
-135 138 -160 l46 -44 1 119 c0 66 2 131 3 145 1 14 3 48 4 76 2 42 6 53 25
62 18 9 11 11 -43 10 -36 -1 -53 -3 -39 -5 20 -3 28 -11 33 -35 9 -47 7 -206
-3 -212 -5 -3 -21 11 -37 32 -15 20 -64 79 -107 130 l-80 92 -56 -1 c-47 0
-53 -2 -34 -11z"/>
<path d="M2436 443 c-6 -14 -5 -15 5 -6 7 7 10 15 7 18 -3 3 -9 -2 -12 -12z"/>
</g>
</svg>
